<svg xmlns="http://www.w3.org/2000/svg" xmlns:xlink="http://www.w3.org/1999/xlink" width="474.289" height="481.691" viewBox="0 0 474.289 481.691">
  <defs>
    <linearGradient id="linear-gradient" y1="0.5" x2="1" y2="0.5" gradientUnits="objectBoundingBox">
      <stop offset="0" stop-color="#63c9f3"/>
      <stop offset="1" stop-color="#2995bc"/>
    </linearGradient>
    <linearGradient id="linear-gradient-2" x1="2.614" y1="-0.898" x2="-0.601" y2="1.145" gradientUnits="objectBoundingBox">
      <stop offset="0.176" stop-color="#fcc505"/>
      <stop offset="1" stop-color="#f3971b"/>
    </linearGradient>
    <linearGradient id="linear-gradient-3" x1="9.274" y1="-6.528" x2="-1.605" y2="2.168" xlink:href="#linear-gradient-2"/>
    <linearGradient id="linear-gradient-4" x1="-0.312" y1="1.061" x2="2.479" y2="-1.142" xlink:href="#linear-gradient-2"/>
    <linearGradient id="linear-gradient-5" x1="-0.474" y1="1.532" x2="8.384" y2="-7.849" xlink:href="#linear-gradient-2"/>
    <linearGradient id="linear-gradient-6" x1="-1817.328" y1="553.804" x2="-1815.678" y2="553.804" gradientUnits="objectBoundingBox">
      <stop offset="0" stop-color="#b37cff"/>
      <stop offset="1" stop-color="#f895e7"/>
    </linearGradient>
    <linearGradient id="linear-gradient-7" x1="-1157.876" y1="642.735" x2="-1157.154" y2="642.735" xlink:href="#linear-gradient-6"/>
    <linearGradient id="linear-gradient-8" x1="-1813.687" y1="572.724" x2="-1812.115" y2="572.724" xlink:href="#linear-gradient-6"/>
    <radialGradient id="radial-gradient" cx="0.5" cy="0.5" r="0.641" gradientTransform="translate(0)" xlink:href="#linear-gradient"/>
    <radialGradient id="radial-gradient-2" cx="0.5" cy="0.5" r="0.753" gradientTransform="translate(0)" xlink:href="#linear-gradient"/>
    <linearGradient id="linear-gradient-9" x1="-2.444" y1="6.62" x2="13.754" y2="-25.167" xlink:href="#linear-gradient"/>
    <linearGradient id="linear-gradient-10" x1="-0.317" y1="3.158" x2="2.725" y2="-6.747" xlink:href="#linear-gradient"/>
    <linearGradient id="linear-gradient-11" x1="173.203" y1="-0.484" x2="170.368" y2="6.012" gradientUnits="objectBoundingBox">
      <stop offset="0" stop-color="#2b3582"/>
      <stop offset="1" stop-color="#150e42"/>
    </linearGradient>
    <linearGradient id="linear-gradient-12" x1="684.003" y1="0.5" x2="685.002" y2="0.5" gradientUnits="objectBoundingBox">
      <stop offset="0" stop-color="#f9b776"/>
      <stop offset="1" stop-color="#f47960"/>
    </linearGradient>
    <linearGradient id="linear-gradient-13" x1="208.97" y1="0.031" x2="206.072" y2="0.887" xlink:href="#linear-gradient-11"/>
    <linearGradient id="linear-gradient-14" x1="429.471" y1="-2.223" x2="422.453" y2="5.384" xlink:href="#linear-gradient-11"/>
    <linearGradient id="linear-gradient-15" x1="792.223" y1="0.5" x2="793.222" y2="0.5" xlink:href="#linear-gradient-12"/>
    <linearGradient id="linear-gradient-16" x1="147.29" y1="-0.035" x2="145.249" y2="0.806" xlink:href="#linear-gradient-11"/>
    <linearGradient id="linear-gradient-17" x1="0.407" y1="0.325" x2="1.972" y2="-2.026" gradientUnits="objectBoundingBox">
      <stop offset="0" stop-color="#fdf53f"/>
      <stop offset="1" stop-color="#d93c65"/>
    </linearGradient>
    <linearGradient id="linear-gradient-18" x1="-160.373" y1="-0.492" x2="-160.027" y2="0.348" xlink:href="#linear-gradient-12"/>
    <linearGradient id="linear-gradient-19" x1="-481.524" y1="0.04" x2="-480.495" y2="1.767" xlink:href="#linear-gradient-12"/>
    <linearGradient id="linear-gradient-20" x1="-1163.414" y1="1.716" x2="-1165.289" y2="-0.451" xlink:href="#linear-gradient-12"/>
    <linearGradient id="linear-gradient-21" x1="0.843" y1="0.152" x2="4.773" y2="-5.86" xlink:href="#linear-gradient-17"/>
    <linearGradient id="linear-gradient-22" x1="105.802" y1="0.5" x2="106.802" y2="0.5" xlink:href="#linear-gradient-12"/>
    <linearGradient id="linear-gradient-23" x1="0.813" y1="-0.591" x2="0.332" y2="0.936" xlink:href="#linear-gradient-11"/>
    <linearGradient id="linear-gradient-24" x1="480.287" y1="211.32" x2="477.841" y2="224.837" gradientUnits="objectBoundingBox">
      <stop offset="0" stop-color="#53d8ff"/>
      <stop offset="1" stop-color="#3840f7"/>
    </linearGradient>
    <linearGradient id="linear-gradient-25" x1="251.848" y1="144.925" x2="250.568" y2="154.215" xlink:href="#linear-gradient-24"/>
    <linearGradient id="linear-gradient-26" x1="339.614" y1="0.5" x2="340.614" y2="0.5" xlink:href="#linear-gradient-12"/>
    <linearGradient id="linear-gradient-27" x1="267.601" y1="0.5" x2="268.601" y2="0.5" xlink:href="#linear-gradient-12"/>
    <linearGradient id="linear-gradient-28" x1="-44.324" y1="114.302" x2="-44.646" y2="113.236" xlink:href="#linear-gradient-12"/>
    <linearGradient id="linear-gradient-29" x1="-33.675" y1="86.341" x2="-33.47" y2="87.52" xlink:href="#linear-gradient-11"/>
    <linearGradient id="linear-gradient-30" x1="-145.68" y1="551.608" x2="-146.623" y2="546.961" xlink:href="#linear-gradient-12"/>
  </defs>
  <g id="Group_24" data-name="Group 24" transform="translate(-127.339 -484.784)">
    <path id="Path_1" data-name="Path 1" d="M546.652,899.449c-9.739,10.253-18.954,16.865-26.235,22.089-85.583,61.406-186.85,43.507-208.372,39.135-31.781-6.455-93.214-18.932-137.629-71.163-67.2-79.021-56.733-203.516-4.611-285.7,9.534-15.032,59.9-98.465,162.253-111.845C394,483.87,466.212,500.2,518.5,544.011,628.269,635.973,620.455,821.751,546.652,899.449Z" opacity="0.1" fill="url(#linear-gradient)"/>
    <g id="Group_1" data-name="Group 1">
      <path id="Path_2" data-name="Path 2" d="M451.575,950.374a3.065,3.065,0,0,1-2.058-1.214c-7.224-9.735-59.748-85.92,10.155-155.559,66.359-66.109,96.44-79.682,100.44-118.524a4.557,4.557,0,0,1,8.617-1.536C583.808,704.1,607.3,775.417,529.556,822.225c-85.76,51.634-78.731,108.235-74.584,124.32a3.08,3.08,0,0,1-3.4,3.829Z" fill="#e44160"/>
      <path id="Path_3" data-name="Path 3" d="M462.211,951.822a4.438,4.438,0,0,1-3.8-3.717c-2.047-13.247-7.074-62.751,29.4-75.878,40.148-14.451,72.56,22.939,102.072-6.326a2.239,2.239,0,0,1,3.793,1.957c-2.628,15.287-14.327,50.7-66.38,57.821-55.715,7.626-61.985,14.018-60.86,21.946a3.737,3.737,0,0,1-4.221,4.2Z" fill="#e44160"/>
      <path id="Path_4" data-name="Path 4" d="M558.171,714.678a57.122,57.122,0,0,1-2.665,8.27,83.763,83.763,0,0,1-3.613,7.854,103.025,103.025,0,0,1-9.262,14.616,121.17,121.17,0,0,1-24.708,24.214,158.179,158.179,0,0,1-14.5,9.4,131.688,131.688,0,0,0-13.761,9.217,145.035,145.035,0,0,0-23.83,23.019c-14.04,17.077-24.005,37.685-27.285,59.626a116.016,116.016,0,0,0-.187,33.19,137.247,137.247,0,0,0,8.794,32.306,1.086,1.086,0,0,1-1.99.87,129.979,129.979,0,0,1-10.495-32.591,113.032,113.032,0,0,1-.977-34.444,118.326,118.326,0,0,1,9.3-33.313A134.312,134.312,0,0,1,461.07,807.4a144.805,144.805,0,0,1,24.742-24.186A138.083,138.083,0,0,1,500.2,773.5a158.925,158.925,0,0,0,14.058-8.92,133.369,133.369,0,0,0,24.454-22.3,116.68,116.68,0,0,0,9.892-13.365,87.984,87.984,0,0,0,7.653-14.753l.026-.067a.991.991,0,0,1,1.889.585Z" fill="#fff" opacity="0.47"/>
      <path id="Path_5" data-name="Path 5" d="M459.9,942.838a3.524,3.524,0,0,0,.1-1.384l-.042-1.365-.032-2.73q0-2.729.122-5.455c.162-3.635.471-7.265.958-10.878a81.5,81.5,0,0,1,5.537-21.178c2.879-6.727,7.24-13.156,13.568-17.357a29.936,29.936,0,0,1,10.393-4.276,38.074,38.074,0,0,1,11.167-.566c14.5,1.682,28.719,4.463,42.972,6.721,7.1,1.058,14.3,2,21.269,1.05a31.738,31.738,0,0,0,5.1-1.164,26.941,26.941,0,0,0,4.758-2.126,33.58,33.58,0,0,0,8.078-6.722l.007-.008a.884.884,0,0,1,1.322,1.174,35.42,35.42,0,0,1-8.394,7.281,28.91,28.91,0,0,1-5.087,2.4,33.665,33.665,0,0,1-5.447,1.369c-7.423,1.088-14.782.163-21.963-.821-7.2-1.025-14.313-2.36-21.449-3.515-7.114-1.158-14.311-2.277-21.4-3.108a35.585,35.585,0,0,0-10.443.431,27.516,27.516,0,0,0-9.6,3.849c-5.888,3.749-10.161,9.716-13.062,16.175a79.789,79.789,0,0,0-5.785,20.61c-.544,3.552-.917,7.134-1.143,10.727q-.166,2.694-.219,5.4l-.018,2.7.017,1.348a2.925,2.925,0,0,0,.211,1.328.821.821,0,1,1-1.5.106Z" fill="#fff" opacity="0.47"/>
    </g>
    <g id="Group_8" data-name="Group 8">
      <g id="Group_2" data-name="Group 2">
        <path id="Path_6" data-name="Path 6" d="M384.12,490.254c-21.851-.173-43.891,3.293-63.392,11.384-45.393,18.834-83.916,68.67-68.841,119.574,4.9,16.536,2.325,34.78,18.8,41.966,8.914,3.888,33.187,6.2,42.416,3.139,24.53-8.145,40.653-30.434,27.312-55.152-4.272-7.916-9.8-15.147-13.491-23.351s-5.37-17.941-1.609-26.113c7.383-16.039,31.909-21.138,47.815-20.657,18.772.568,35.783,9.853,45.885,25.782,12.59,19.852,15.78,44,13.937,67.042-1.971,24.658-12.368,43.488-27.949,62.4-13.415,16.286-28.187,31.918-37.1,51.041-8.185,17.556-10.86,37.008-11.229,56.214-.072,3.722-18.585,38.8-18.505,49.52.011,1.514,21,6.53,22.51,6.547l38.517.431a3.07,3.07,0,0,0,3.109-3.029c.587-52.142,16.625-101.854,57.225-136.873,14.772-12.742,30.682-23.118,42.169-39.2,16.373-22.924,24.45-45.484,22.119-73.775-2.129-25.838-10.637-51.691-27.48-71.739-18.1-21.547-44.6-35-72.133-40.809A203.1,203.1,0,0,0,384.12,490.254Z" fill="url(#linear-gradient-2)"/>
        <path id="Path_7" data-name="Path 7" d="M424.416,918.476c0,23.977-13.291,45.19-37.268,45.19-5.179,0-22.8.048-27.4-1.616-16.715-6.039-16.775-18.88-16.775-37.678,0-23.977,8.1-47.558,32.074-47.558S424.416,894.5,424.416,918.476Z" fill="url(#linear-gradient-3)"/>
      </g>
      <g id="Group_3" data-name="Group 3">
        <path id="Path_8" data-name="Path 8" d="M363.358,484.79c-21.851-.172-43.892,3.293-63.392,11.384-45.393,18.834-83.917,68.67-68.841,119.574,4.9,16.536,16.221,37.352,32.694,44.538,8.913,3.889,19.29,3.631,28.519.567,24.53-8.144,40.654-30.434,27.313-55.152-4.272-7.916-9.8-15.147-13.491-23.351s-5.371-17.941-1.61-26.112c7.383-16.04,31.91-21.139,47.815-20.658,18.773.568,35.783,9.853,45.885,25.782,12.591,19.852,15.78,44,13.938,67.042-1.972,24.658-12.369,43.488-27.95,62.4-13.414,16.285-28.187,31.918-37.1,51.04-8.186,17.556-10.86,37.008-11.23,56.214-.072,3.722,1.182,42.6,1.261,53.313a2.774,2.774,0,0,0,2.745,2.754l38.516.431a3.071,3.071,0,0,0,3.11-3.029c.586-52.142,16.624-101.853,57.224-136.872,14.773-12.743,30.683-23.119,42.17-39.2,16.372-22.924,24.449-45.483,22.118-73.775-2.129-25.838-10.637-51.691-27.479-71.738-18.1-21.548-44.6-35-72.134-40.81A203.174,203.174,0,0,0,363.358,484.79Z" fill="url(#linear-gradient-4)"/>
        <circle id="Ellipse_1" data-name="Ellipse 1" cx="43.414" cy="43.414" r="43.414" transform="translate(322.208 875.494)" fill="url(#linear-gradient-5)"/>
      </g>
      <g id="Group_4" data-name="Group 4">
        <path id="Path_9" data-name="Path 9" d="M245.495,610.762a.557.557,0,0,1-.543-.437c-3.043-13.738-3.489-35.25,11.66-59.722,14.787-23.886,35.528-39.868,61.649-47.5,27.922-8.161,61.073-6.414,98.534,5.193a.557.557,0,0,1-.33,1.065c-37.249-11.542-70.184-13.287-97.891-5.188-25.849,7.556-46.377,23.376-61.014,47.021-14.953,24.153-14.518,45.358-11.52,58.894a.561.561,0,0,1-.545.678Z" fill="#fff" stroke="#fff" stroke-miterlimit="10" stroke-width="1"/>
      </g>
      <g id="Group_5" data-name="Group 5">
        <path id="Path_10" data-name="Path 10" d="M254.628,632.865a.559.559,0,0,1-.451-.229,55.891,55.891,0,0,1-6.169-12.116.557.557,0,1,1,1.041-.4,55.791,55.791,0,0,0,6.028,11.857.558.558,0,0,1-.449.886Z" fill="#fff" stroke="#fff" stroke-miterlimit="10" stroke-width="1"/>
      </g>
      <g id="Group_6" data-name="Group 6">
        <path id="Path_11" data-name="Path 11" d="M380.15,890.77a.556.556,0,0,1-.252-.06,31.256,31.256,0,0,0-14.275-3.4.557.557,0,1,1,0-1.114,32.37,32.37,0,0,1,14.779,3.521.557.557,0,0,1-.252,1.054Z" fill="#fff"/>
      </g>
      <g id="Group_7" data-name="Group 7">
        <path id="Path_12" data-name="Path 12" d="M347.643,946.131a.552.552,0,0,1-.311-.1,32.723,32.723,0,0,1,2.824-55.96.557.557,0,1,1,.528.981,31.609,31.609,0,0,0-2.728,54.056.558.558,0,0,1-.313,1.019Z" fill="#fff"/>
      </g>
    </g>
    <g id="Group_17" data-name="Group 17">
      <g id="Group_12" data-name="Group 12">
        <g id="Group_9" data-name="Group 9" opacity="0.3">
          <path id="Path_13" data-name="Path 13" d="M221.2,566.006a1.313,1.313,0,0,1-1.847.2c-1.1-.887-2.247-1.74-3.42-2.535a1.313,1.313,0,0,1-.365-1.8l.014-.022a1.315,1.315,0,0,1,1.825-.35c1.235.836,2.446,1.734,3.6,2.668a1.313,1.313,0,0,1,.276,1.735A1.107,1.107,0,0,1,221.2,566.006ZM209.96,560.19c-1.27-.627-2.579-1.206-3.891-1.72a1.314,1.314,0,1,1,.959-2.446c1.381.541,2.759,1.15,4.1,1.809a1.314,1.314,0,0,1,.6,1.76,1.5,1.5,0,0,1-.077.136A1.315,1.315,0,0,1,209.96,560.19ZM199.475,556.4c-1.374-.328-2.779-.6-4.177-.808a1.314,1.314,0,1,1,.388-2.6c1.472.219,2.952.506,4.4.851a1.314,1.314,0,0,1,.974,1.583,1.339,1.339,0,0,1-.176.411A1.316,1.316,0,0,1,199.475,556.4Zm-11.07-1.348c-1.414-.013-2.845.037-4.254.145a1.314,1.314,0,1,1-.2-2.62c1.484-.114,2.99-.166,4.479-.153a1.314,1.314,0,1,1-.023,2.628Zm-11.093,1.151c-1.379.3-2.764.666-4.117,1.085a1.314,1.314,0,1,1-.775-2.511c1.423-.44,2.88-.823,4.331-1.14a1.313,1.313,0,1,1,.561,2.566Zm-10.563,3.578c-1.279.6-2.549,1.262-3.773,1.968a1.314,1.314,0,1,1-1.313-2.276c1.288-.744,2.625-1.44,3.971-2.072a1.314,1.314,0,0,1,1.659,1.907A1.3,1.3,0,0,1,166.749,559.783Zm-29.61,38.775a1.315,1.315,0,0,1-1.1-1.5c.222-1.469.511-2.949.86-4.4a1.313,1.313,0,1,1,2.554.614c-.33,1.376-.605,2.781-.815,4.177a1.314,1.314,0,0,1-1.495,1.1Zm20.109-32.949c-1.113.869-2.2,1.8-3.237,2.758a1.314,1.314,0,0,1-1.788-1.926c1.09-1.012,2.237-1.989,3.409-2.9a1.314,1.314,0,0,1,1.91,1.752A1.284,1.284,0,0,1,157.248,565.609Zm-17.421,21.818a1.314,1.314,0,0,1-.741-1.7c.546-1.383,1.158-2.76,1.819-4.094a1.314,1.314,0,1,1,2.354,1.167c-.628,1.268-1.21,2.577-1.728,3.891a1.336,1.336,0,0,1-.121.235A1.315,1.315,0,0,1,139.827,587.427Zm9.462-14.016c-.89,1.1-1.745,2.244-2.541,3.413a1.314,1.314,0,0,1-2.188-1.454l.016-.023c.837-1.232,1.737-2.44,2.674-3.593a1.314,1.314,0,0,1,2.122,1.543A1.268,1.268,0,0,1,149.289,573.411Z" fill="#5dc6f4"/>
          <path id="Path_14" data-name="Path 14" d="M137.892,607.184a1.314,1.314,0,0,0,.211-.756c-.022-.677-.029-1.366-.023-2.048a1.314,1.314,0,1,0-2.627-.024c-.007.717,0,1.441.023,2.154a1.314,1.314,0,0,0,2.416.674Z" fill="url(#linear-gradient-6)"/>
        </g>
        <g id="Group_10" data-name="Group 10" opacity="0.3">
          <path id="Path_15" data-name="Path 15" d="M154.683,643.55a1.316,1.316,0,0,0-.221-1.69c-.5-.454-1-.926-1.49-1.4a1.314,1.314,0,0,0-1.842,1.875c.512.5,1.04,1,1.569,1.478a1.314,1.314,0,0,0,1.856-.093A1.412,1.412,0,0,0,154.683,643.55Z" fill="url(#linear-gradient-7)"/>
          <path id="Path_16" data-name="Path 16" d="M230.446,635.68a1.314,1.314,0,1,1-2.13-1.538c.808-1.12,1.582-2.292,2.308-3.5a1.314,1.314,0,1,1,2.25,1.357q-.471.783-.966,1.543C231.438,634.269,230.947,634.987,230.446,635.68Zm3.975-9.359a1.313,1.313,0,0,1-.686-1.726c.551-1.279,1.054-2.6,1.495-3.913a1.313,1.313,0,1,1,2.491.834c-.464,1.387-.993,2.773-1.574,4.119a1.273,1.273,0,0,1-.1.2A1.314,1.314,0,0,1,234.421,626.321Zm-8.553,14.863c-1.009,1.058-2.078,2.086-3.176,3.057a1.314,1.314,0,0,1-1.741-1.969c1.044-.922,2.058-1.9,3.017-2.9a1.313,1.313,0,1,1,1.9,1.814Zm12.122-25.55a1.314,1.314,0,0,1-1.049-1.534c.257-1.367.458-2.761.6-4.144a1.314,1.314,0,1,1,2.614.265c-.147,1.456-.359,2.924-.629,4.364a1.313,1.313,0,0,1-1.534,1.049ZM217.018,648.6c-1.216.809-2.485,1.577-3.77,2.282a1.313,1.313,0,0,1-1.265-2.3c1.221-.671,2.425-1.4,3.581-2.168a1.314,1.314,0,1,1,1.454,2.188Zm-10.261,5.294c-1.368.525-2.773,1-4.177,1.406a1.314,1.314,0,0,1-.733-2.523c1.334-.388,2.669-.838,3.969-1.336a1.314,1.314,0,0,1,.941,2.453Zm-11.172,2.932c-1.45.215-2.925.37-4.384.463a1.314,1.314,0,0,1-.166-2.623c1.386-.087,2.788-.235,4.165-.439a1.314,1.314,0,1,1,.385,2.6Zm-11.545.426c-1.462-.108-2.936-.28-4.381-.51a1.314,1.314,0,0,1,.415-2.6c1.372.219,2.771.382,4.159.484a1.314,1.314,0,0,1-.193,2.621Zm-11.363-2.124c-1.4-.426-2.8-.917-4.157-1.461a1.314,1.314,0,1,1,.975-2.44c1.292.516,2.62.983,3.949,1.388a1.314,1.314,0,0,1,.873,1.64,1.286,1.286,0,0,1-.155.333A1.314,1.314,0,0,1,172.677,655.127Zm-10.608-4.561c-.937-.531-1.87-1.1-2.771-1.683q-.491-.318-.97-.645a1.314,1.314,0,1,1,1.48-2.172q.456.311.922.614c.857.557,1.743,1.1,2.634,1.6a1.314,1.314,0,0,1,.5,1.79c-.014.024-.028.047-.043.07A1.313,1.313,0,0,1,162.069,650.566Z" fill="#5dc6f4"/>
          <path id="Path_17" data-name="Path 17" d="M240.172,603.792a1.3,1.3,0,0,0,.211-.763c-.025-.71-.067-1.434-.123-2.151a1.313,1.313,0,1,0-2.619.2c.053.681.092,1.368.117,2.043a1.313,1.313,0,0,0,2.414.667Z" fill="url(#linear-gradient-8)"/>
        </g>
        <g id="Group_11" data-name="Group 11">
          <path id="Path_18" data-name="Path 18" d="M223.693,588.438a.613.613,0,0,0-.571-.426l-7.472-.165a32.558,32.558,0,0,0-6.815-8.05l1.067-7.392a.615.615,0,0,0-.327-.634l-7.971-4.1a.613.613,0,0,0-.705.1l-5.4,5.164a32.556,32.556,0,0,0-10.512-.867l-4.476-5.985a.616.616,0,0,0-.68-.217L171.3,568.6a.614.614,0,0,0-.426.571l-.164,7.472a32.561,32.561,0,0,0-8.051,6.814l-7.392-1.066a.616.616,0,0,0-.634.327l-4.1,7.971a.613.613,0,0,0,.1.705l5.164,5.4a32.528,32.528,0,0,0-.866,10.512l-5.985,4.476a.614.614,0,0,0-.217.679L151.462,621a.614.614,0,0,0,.571.427l7.472.164a32.562,32.562,0,0,0,6.815,8.051l-1.066,7.392a.613.613,0,0,0,.326.634l7.971,4.1a.614.614,0,0,0,.706-.1l5.4-5.163a32.582,32.582,0,0,0,10.512.866l4.476,5.985a.613.613,0,0,0,.679.217l8.537-2.735a.615.615,0,0,0,.426-.571l.164-7.472a32.543,32.543,0,0,0,8.051-6.815l7.392,1.066a.615.615,0,0,0,.634-.326l4.1-7.971a.615.615,0,0,0-.1-.706l-5.164-5.4a32.554,32.554,0,0,0,.867-10.512l5.985-4.476a.616.616,0,0,0,.217-.679Z" fill="url(#radial-gradient)"/>
          <path id="Path_19" data-name="Path 19" d="M194.337,610.676a9.005,9.005,0,1,1,.8-1.053A9.022,9.022,0,0,1,194.337,610.676Zm-13.655-5.525a6.909,6.909,0,1,0,1.713-5,6.979,6.979,0,0,0-.619.816A6.86,6.86,0,0,0,180.682,605.151Z" fill="#fff" opacity="0.56"/>
          <path id="Path_20" data-name="Path 20" d="M205.95,616.869a22.652,22.652,0,0,0,1.142-1.97h0c.111-.213.217-.429.321-.647a22.351,22.351,0,0,0,1.262-3.316l.013-.046c.013-.044.026-.088.038-.132.024-.086.047-.172.071-.257a.526.526,0,0,0-.221-.577.494.494,0,0,0-.15-.067.525.525,0,0,0-.644.371A21.131,21.131,0,0,1,189.3,625.773a20.969,20.969,0,0,1-11.567-2.247,21.477,21.477,0,0,1-1.879-1.09,21.107,21.107,0,0,1,21.2-36.442,21.321,21.321,0,0,1,1.855,1.077,21.039,21.039,0,0,1,6.412,6.542.526.526,0,0,0,.893-.555,22.075,22.075,0,0,0-6.732-6.868,22.163,22.163,0,0,0-31.787,8.431,22.164,22.164,0,0,0,7.589,28.7q.951.617,1.972,1.144a22.163,22.163,0,0,0,28.7-7.592Z" fill="#fff" opacity="0.56"/>
        </g>
      </g>
      <g id="Group_16" data-name="Group 16">
        <g id="Group_13" data-name="Group 13">
          <path id="Path_21" data-name="Path 21" d="M274.747,547.166a.81.81,0,0,0-.065-.97c-.448-.523-.919-1.039-1.4-1.535a.811.811,0,1,0-1.166,1.129c.456.472.9.964,1.333,1.463a.809.809,0,0,0,1.3-.087Z" fill="#c1e9f4"/>
          <path id="Path_22" data-name="Path 22" d="M270.217,542.889a.812.812,0,0,1-1.141.123,33.745,33.745,0,0,0-2.758-2q-.3-.2-.606-.384a.812.812,0,0,1-.261-1.118.839.839,0,0,1,1.117-.261c.214.132.425.266.635.4a35.123,35.123,0,0,1,2.89,2.095.811.811,0,0,1,.172,1.073C270.25,542.844,270.234,542.867,270.217,542.889Zm-8.133-4.215a33.4,33.4,0,0,0-3.838-1.5.812.812,0,0,1,.5-1.546,35.275,35.275,0,0,1,4.024,1.57.813.813,0,0,1,.4,1.078.835.835,0,0,1-.057.1A.811.811,0,0,1,262.084,538.674Zm-7.833-2.509a33.242,33.242,0,0,0-4.09-.508.812.812,0,0,1,.1-1.62,34.918,34.918,0,0,1,4.289.533.813.813,0,0,1,.648.947.815.815,0,0,1-.948.648Zm-8.211-.507a33.349,33.349,0,0,0-4.088.507.811.811,0,0,1-.3-1.595,35.222,35.222,0,0,1,4.288-.532.812.812,0,0,1,.1,1.62Zm-8.085,1.512a33.859,33.859,0,0,0-3.843,1.485.811.811,0,1,1-.676-1.475,35.366,35.366,0,0,1,4.027-1.557.812.812,0,0,1,.492,1.547Zm-7.474,3.429a33.326,33.326,0,0,0-3.361,2.376.812.812,0,1,1-1.017-1.265,34.887,34.887,0,0,1,3.525-2.492.812.812,0,0,1,1.107,1.133A.8.8,0,0,1,230.481,540.6Zm-6.4,5.151a33.128,33.128,0,0,0-2.677,3.131.812.812,0,0,1-1.3-.978,35.1,35.1,0,0,1,2.808-3.282.811.811,0,0,1,1.264,1.006A.868.868,0,0,1,224.076,545.75Zm-7.85,10.689a.812.812,0,0,1-.431-1.064A35.455,35.455,0,0,1,217.442,552c.091-.167.185-.332.279-.5a.8.8,0,0,1,1.109-.3.812.812,0,0,1,.3,1.109c-.09.154-.177.309-.265.468a33.684,33.684,0,0,0-1.572,3.22.814.814,0,0,1-1.064.431Z" fill="#c1e9f4"/>
        </g>
        <g id="Group_14" data-name="Group 14">
          <path id="Path_23" data-name="Path 23" d="M277.2,588.528a35.423,35.423,0,0,1-2.57,3.383.812.812,0,1,1-1.23-1.059,33.668,33.668,0,0,0,2.451-3.226.811.811,0,0,1,1.355.893Zm1.054-3.313a.811.811,0,0,1-.356-1.09,34.017,34.017,0,0,0,1.613-3.72.812.812,0,0,1,1.525.556,35.568,35.568,0,0,1-1.691,3.9.836.836,0,0,1-.044.076A.811.811,0,0,1,278.251,585.215Zm-6.588,9.743a35.2,35.2,0,0,1-3.312,2.662.812.812,0,0,1-.938-1.325,33.807,33.807,0,0,0,3.16-2.538.811.811,0,0,1,1.09,1.2Zm9.6-17.466a.812.812,0,0,1-.609-.973,33.44,33.44,0,0,0,.668-4,.811.811,0,1,1,1.614.169,34.994,34.994,0,0,1-.7,4.193.8.8,0,0,1-.111.26A.811.811,0,0,1,281.267,577.492Zm-16.525,22.366a35.321,35.321,0,0,1-3.854,1.787.812.812,0,0,1-.593-1.512,33.193,33.193,0,0,0,3.676-1.7.812.812,0,0,1,.771,1.429Zm-7.9,3.1a35.581,35.581,0,0,1-4.17.814.812.812,0,0,1-.214-1.609,34.037,34.037,0,0,0,3.979-.776.811.811,0,1,1,.4,1.571Zm-8.41,1.118a35.148,35.148,0,0,1-4.246-.211.811.811,0,1,1,.179-1.613,33.549,33.549,0,0,0,4.048.2.812.812,0,0,1,.019,1.623Z" fill="#c1e9f4"/>
          <path id="Path_24" data-name="Path 24" d="M282.993,568.861a.8.8,0,0,0,.131-.457c-.013-.694-.047-1.392-.1-2.072a.812.812,0,1,0-1.619.126c.051.649.083,1.314.1,1.977a.811.811,0,0,0,1.492.426Z" fill="#c1e9f4"/>
        </g>
        <g id="Group_15" data-name="Group 15">
          <path id="Path_25" data-name="Path 25" d="M272.005,558a.411.411,0,0,0-.382-.286l-5-.11a21.81,21.81,0,0,0-4.56-5.387l.714-4.946a.411.411,0,0,0-.219-.424l-5.334-2.745a.412.412,0,0,0-.472.068l-3.61,3.456a21.77,21.77,0,0,0-7.035-.58l-2.995-4a.41.41,0,0,0-.454-.145l-5.713,1.83a.411.411,0,0,0-.285.382l-.11,5a21.775,21.775,0,0,0-5.387,4.56l-4.947-.713a.413.413,0,0,0-.424.218l-2.745,5.334a.411.411,0,0,0,.069.472l3.455,3.611a21.818,21.818,0,0,0-.58,7.034l-4.005,2.995a.413.413,0,0,0-.145.455l1.831,5.712a.411.411,0,0,0,.382.286l5,.11a21.792,21.792,0,0,0,4.56,5.387l-.714,4.946a.41.41,0,0,0,.219.424l5.334,2.745a.41.41,0,0,0,.472-.068l3.611-3.456a21.76,21.76,0,0,0,7.034.58l2.995,4.005a.41.41,0,0,0,.454.145l5.713-1.83a.411.411,0,0,0,.285-.382l.11-5a21.774,21.774,0,0,0,5.387-4.56l4.947.713a.413.413,0,0,0,.424-.218l2.745-5.334a.41.41,0,0,0-.069-.472l-3.455-3.611a21.817,21.817,0,0,0,.58-7.034l4.005-2.995a.413.413,0,0,0,.145-.455Z" fill="url(#radial-gradient-2)"/>
          <path id="Path_26" data-name="Path 26" d="M252.443,572.954a6.123,6.123,0,1,1,.55-.725A6.339,6.339,0,0,1,252.443,572.954Zm-7.591-.672a4.516,4.516,0,0,0,6.373-.4h0a4.515,4.515,0,1,0-6.373.4Z" fill="#fff" opacity="0.56"/>
          <path id="Path_27" data-name="Path 27" d="M260.526,577.263a15.4,15.4,0,0,0,1.918-4.243l.037-.135a.812.812,0,0,0-.341-.892.825.825,0,0,0-.232-.1.812.812,0,0,0-.994.573,13.753,13.753,0,0,1-1.051,2.712h0l-.074.141a13.53,13.53,0,0,1-4.479,4.972A13.781,13.781,0,0,1,252,581.9l-.029.01-.088.028a13.573,13.573,0,0,1-10.422-.863,13.761,13.761,0,0,1-1.216-.705,13.664,13.664,0,0,1,13.721-23.592,13.33,13.33,0,0,1,1.2.7,13.622,13.622,0,0,1,4.152,4.235.783.783,0,0,0,.247.252.811.811,0,0,0,1.131-1.108,15.287,15.287,0,1,0-.171,16.412Z" fill="#fff" opacity="0.56"/>
        </g>
      </g>
    </g>
    <g id="Group_18" data-name="Group 18">
      <path id="Path_28" data-name="Path 28" d="M439.092,632.349l-23.6,24.139,28.306-7.561Z" fill="url(#linear-gradient-9)"/>
      <path id="Path_29" data-name="Path 29" d="M579.5,642.341l-134.085,6.507a6.034,6.034,0,0,1-6.327-6.027V587.658a11.1,11.1,0,0,1,10.755-11.093l120.845-3.739a16.294,16.294,0,0,1,16.294,16.294v45.366A7.864,7.864,0,0,1,579.5,642.341Z" fill="url(#linear-gradient-10)"/>
      <path id="Path_30" data-name="Path 30" d="M449.429,646.633a8.291,8.291,0,0,1-8.278-8.291V588.624a10.85,10.85,0,0,1,10.7-10.772l117.005-3.533a15.9,15.9,0,0,1,16.076,15.686V632.87a7.8,7.8,0,0,1-7.522,7.711l-127.572,6.042C449.7,646.629,449.563,646.633,449.429,646.633ZM568.86,574.9l-117,3.533a10.272,10.272,0,0,0-10.132,10.191v49.718a7.71,7.71,0,0,0,8.074,7.7L577.378,640l.014.29-.014-.29a7.216,7.216,0,0,0,6.968-7.131V590.005A15.316,15.316,0,0,0,568.86,574.9Z" fill="#fff" opacity="0.85"/>
      <path id="Path_31" data-name="Path 31" d="M568.469,584.958,461.252,588.97a1.731,1.731,0,0,0-1.846,1.555l.04.943a1.723,1.723,0,0,0,1.945,1.392l107.22-3.915a1.732,1.732,0,0,0,1.849-1.555l-.044-1.04A1.724,1.724,0,0,0,568.469,584.958Z" fill="#fff" opacity="0.94"/>
      <path id="Path_32" data-name="Path 32" d="M558.874,612.1l-107.217,3.992a1.746,1.746,0,0,0-1.844,1.608l.041.976a1.741,1.741,0,0,0,1.947,1.446l107.222-3.892a1.746,1.746,0,0,0,1.846-1.607l-.046-1.078A1.74,1.74,0,0,0,558.874,612.1Z" fill="#fff" opacity="0.94"/>
      <path id="Path_33" data-name="Path 33" d="M571.4,623.456l-119.524,4.513c-1.173.044-2.1.776-2.063,1.632l.042.985c.036.846,1,1.494,2.164,1.451l119.528-4.41c1.175-.044,2.1-.777,2.066-1.632l-.047-1.088C573.53,624.06,572.563,623.412,571.4,623.456Z" fill="#fff" opacity="0.94"/>
      <path id="Path_34" data-name="Path 34" d="M509.685,600.961l-58.437,1.7c-.574.017-1,.8-.956,1.755l.054,1.1c.046.94.541,1.686,1.109,1.671L509.9,605.6c.574-.016,1-.8.957-1.755l-.06-1.209C510.75,601.69,510.253,600.944,509.685,600.961Z" fill="#fff" opacity="0.94"/>
      <path id="Path_35" data-name="Path 35" d="M574.075,598.941l-55.235,1.583c-.542.016-.945.8-.9,1.753l.055,1.1c.047.94.517,1.687,1.054,1.673l55.241-1.47c.542-.015.946-.8.9-1.753l-.06-1.209C575.084,599.673,574.613,598.925,574.075,598.941Z" fill="#fff" opacity="0.94"/>
    </g>
    <g id="Group_23" data-name="Group 23">
      <path id="Path_36" data-name="Path 36" d="M235.5,946.6s-1.106,6.257-1.648,12.451a4.268,4.268,0,0,0,4.083,4.623c8.248.344,25.891,1.012,32.222.729a1.387,1.387,0,0,0,1.221-1.9h0a3.107,3.107,0,0,0-1.589-1.674l-29.143-13.394Z" fill="url(#linear-gradient-11)"/>
      <path id="Path_37" data-name="Path 37" d="M234.592,942.92l.888,7.484s5.105,2.377,8.592-.3l-2.115-8.341Z" fill="url(#linear-gradient-12)"/>
      <path id="Path_38" data-name="Path 38" d="M235.259,802.218c-.383,1.954-2.058,97.53,8.158,140.36a1.454,1.454,0,0,1-.853,1.691,25.328,25.328,0,0,1-8.32,1.691,2.505,2.505,0,0,1-2.484-1.8c-2.92-9.937-16.914-59.726-18.739-107.288-2.04-53.146,0-1.81,0-1.81l1.2-32.851Z" fill="url(#linear-gradient-13)"/>
      <path id="Path_39" data-name="Path 39" d="M201.973,949.861s-1.759,3.158-3.462,11.552a2.6,2.6,0,0,0,2.291,3.118c2.723.267,6.916.612,10.275.589a2.6,2.6,0,0,0,2.569-2.9,21.9,21.9,0,0,0-5.111-12.008Z" fill="url(#linear-gradient-14)"/>
      <path id="Path_40" data-name="Path 40" d="M200.428,940.234l2.075,11.318s2.052,1.526,6.11.42l-.99-12.177Z" fill="url(#linear-gradient-15)"/>
      <path id="Path_41" data-name="Path 41" d="M194.823,805.151c-8.356,50.426,1.813,124.633,5.242,139.157a2.265,2.265,0,0,0,1.829,1.72,15.23,15.23,0,0,0,6.535-.261,2.077,2.077,0,0,0,1.492-1.912c.461-11.742-.368-83.828,7.418-112.317a6.466,6.466,0,0,1,2.5-3.57l15.111-10.743,1.159-17.364Z" fill="url(#linear-gradient-16)"/>
      <g id="Group_19" data-name="Group 19">
        <path id="Path_42" data-name="Path 42" d="M248.065,709.6c-25.04-.414-52.669,6.575-52.669,6.575-7.464,43.552-1.3,93.785-1.3,93.785,19.385,5.084,41.253-3.108,41.253-3.108,3.222-18.2,18.255-69.434,18.255-69.434a82.5,82.5,0,0,0,30.613-9.715c-6.331-7.339-9.316-16.676-10.612-22.2A84.013,84.013,0,0,1,248.065,709.6Z" fill="url(#linear-gradient-17)"/>
        <path id="Path_43" data-name="Path 43" d="M322.029,672.719a4.792,4.792,0,0,0-5.573-1.565c-3.685,15.565-23.006,28.186-42.856,34.355,1.3,5.52,4.281,14.857,10.612,22.2C317.154,709.183,322.029,672.719,322.029,672.719Z" fill="url(#linear-gradient-18)"/>
      </g>
      <g id="Group_20" data-name="Group 20">
        <path id="Path_44" data-name="Path 44" d="M321.432,673.475c.257.818-2.723,2.064-4.478-1.282-.062-1.6-1.037-8.475-.079-9.782,5.105-6.959,15-15.682,15-15.682A2.354,2.354,0,0,1,332.17,650l-4.8,5c1,1.815,2.229,3.347,2.8,5.542a6.729,6.729,0,0,1-.671,4.951c-.843,1.518-1.992,3.491-3.079,5.036A6.644,6.644,0,0,1,321.432,673.475Z" fill="url(#linear-gradient-19)"/>
        <path id="Path_45" data-name="Path 45" d="M325.27,658.246l-4.375,3.709-1.374,3.692,3.9,4.328s1.312-7.327,2.286-8.913S326.178,658.71,325.27,658.246Z" fill="url(#linear-gradient-20)"/>
      </g>
      <path id="Path_46" data-name="Path 46" d="M205,740.423l-9.6-24.246s-23.389,15.892-27.235,36.04a55.354,55.354,0,0,1,20.332,5.45C190.223,748.153,205,740.423,205,740.423Z" fill="url(#linear-gradient-21)"/>
      <path id="Path_47" data-name="Path 47" d="M225.44,763.238s-26.26,14.841-35.121,2.168a9.962,9.962,0,0,1-1.826-7.739,55.354,55.354,0,0,0-20.332-5.45,27.8,27.8,0,0,0,3.023,19.064c15.52,28.392,57.731-1.569,57.731-1.569Z" fill="url(#linear-gradient-22)"/>
      <g id="Group_21" data-name="Group 21">
        <path id="Path_48" data-name="Path 48" d="M222.284,782.013l14.332-50.049a1.459,1.459,0,0,1,1.234-1.051c2.6-.3,10.121-1.154,18.808-1.888,10.464-.886,22.616-1.6,29.878-.993a1.465,1.465,0,0,1,1.2,2.108c-4.129,8.354-21.115,42.337-29.621,53.47a1.47,1.47,0,0,1-1.182.58l-33.251-.31A1.465,1.465,0,0,1,222.284,782.013Z" fill="url(#linear-gradient-23)"/>
        <path id="Path_49" data-name="Path 49" d="M258.145,724.686l10.391-1.732a.746.746,0,0,1,.83.97l-1.028,3.116a.746.746,0,0,1-.61.506l-10,1.336a.746.746,0,0,1-.824-.91l.636-2.721A.745.745,0,0,1,258.145,724.686Z" fill="url(#linear-gradient-24)"/>
        <path id="Path_50" data-name="Path 50" d="M250.365,733.482l.856-4.459a1.031,1.031,0,0,1,.908-.831l20.986-2.129a1.031,1.031,0,0,1,1.107,1.266l-1.335,5.556a1.03,1.03,0,0,1-.95.788l-20.508,1.033A1.031,1.031,0,0,1,250.365,733.482Z" fill="url(#linear-gradient-25)"/>
        <path id="Path_51" data-name="Path 51" d="M225.747,769.921s-2-8.209-1.191-11.121,2.366-6.658,7.566-5.825A76.093,76.093,0,0,1,243.458,756s-.31,3.793-4.263,2.569l2.451,1.9s-.35,3.037-3.689,1.414l2.28,2.516a2.657,2.657,0,0,1-3.89.894C233.891,763.688,232.713,770.91,225.747,769.921Z" fill="url(#linear-gradient-26)"/>
      </g>
      <path id="Path_52" data-name="Path 52" d="M222.7,689.273l-7.967,23.042a.83.83,0,0,0,.378,1c2.172,1.2,10,4.672,19.426-1.306a3.912,3.912,0,0,0,1.8-2.792l2.58-19.943Z" fill="url(#linear-gradient-27)"/>
      <g id="Group_22" data-name="Group 22">
        <path id="Path_53" data-name="Path 53" d="M240.037,667.937s8.749,16.469,7.628,23.122-11.965,6.174-21.433.771l-6.617-17.782Z" fill="url(#linear-gradient-28)"/>
        <path id="Path_54" data-name="Path 54" d="M226.65,683.1a.679.679,0,0,0,.3-.993,17.722,17.722,0,0,1-2.434-5.168s-1.573-1.008,4-2.342,13.891-3.406,15.638-8.152c1.7-4.628-2.773-16.265-9.916-6.992a.679.679,0,0,1-1.075.007c-1.171-1.524-4.25-4.687-8.524-2.77-4,1.795-4.45,4.726-4.4,6.2a.675.675,0,0,1-.8.691c-2.022-.386-6.875-.717-9.14,4.261-1.866,4.1-.653,6.422.451,7.557a.677.677,0,0,1-.29,1.124c-1.328.407-3.045,1.534-2.873,4.647.238,4.3,5.05,3.926,6.421,3.73a.681.681,0,0,1,.6.213c1.174,1.3,6.468,6.821,12.2,7.486a.684.684,0,0,0,.718-.9l-2.48-7.208a.682.682,0,0,1,.369-.845Z" fill="url(#linear-gradient-29)"/>
        <path id="Path_55" data-name="Path 55" d="M227.647,684.12s-6.229-4.274-6.684-.674,5.609,5.213,8.613,3.871Z" fill="url(#linear-gradient-30)"/>
      </g>
    </g>
  </g>
</svg>
