<svg xmlns="http://www.w3.org/2000/svg" xmlns:xlink="http://www.w3.org/1999/xlink" width="1281.001" height="731.499" viewBox="0 0 1281.001 731.499">
  <defs>
    <linearGradient id="linear-gradient" x1="0.5" y1="0.242" x2="0.5" y2="1.255" gradientUnits="objectBoundingBox">
      <stop offset="0" stop-color="#71caf2"/>
      <stop offset="1" stop-color="#2f9dc3"/>
    </linearGradient>
  </defs>
  <g id="BG_01" data-name="BG 01" transform="translate(0.5 -68.5)">
    <path id="Intersection_7" data-name="Intersection 7" d="M-5201-793v-484.014h1280V-793Z" transform="translate(5201 1593)" fill="url(#linear-gradient)"/>
    <path id="Intersection_10" data-name="Intersection 10" d="M-4489.6-812.291c-87.094-1-138.942-64.312-209.226-125.135s-146.58-4.2-219.568-133.952c-38.013-67.579-90.854-61.846-140.953-56.112-22.232,2.544-43.931,5.087-63.548,1.225v-294.4h1280v261.936c-25.579,32.665-57.415,53.483-95.57,63.021-48.658,12.164-105.427,8.11-158.14,50.011s-36.313,53.366-113.693,121.286-111.121,17.019-159.172,57.062c-33.53,22.681-33.068,55.078-116.308,55.081C-4487.033-812.269-4488.3-812.276-4489.6-812.291Z" transform="translate(5122.893 1489.666)" fill="#22296e"/>
    <path id="Intersection_8" data-name="Intersection 8" d="M-4834.806-915.373v-555.9c222.215-89.389,452.139-.258,537.383,41.375,168.373,82.23,220.811,180.6,574.566-2.086,60.219-31.1,116.512-49.537,168.051-58.324v599.276q-27.9-3.552-56.138-9.4c-275.411-57.383-242.7-68.516-556.092,42.479-104.8,37.118-178.117,53.407-247.029,53.4C-4526.734-804.547-4627.572-848.093-4834.806-915.373Z" transform="translate(4834.807 1593)" fill="#fff" stroke="rgba(0,0,0,0)" stroke-miterlimit="10" stroke-width="1" opacity="0.2" style="mix-blend-mode: soft-light;isolation: isolate"/>
    <path id="Intersection_9" data-name="Intersection 9" d="M-5175.4-882.323V-989.94c50.995-111.96,87.25-116.372,3.936-186.8q-2.036-1.721-3.936-3.587v-154.16c45.2-71.391,150-119.375,312.233-34.564,288.627,150.889,306.705,49.272,410.76-46.118,39.08-35.825,129.868-104.158,246.108-108.6h23.8c44.757,1.715,92.812,13.292,142.834,39.793,121.881,64.57-19.674,167.3,63.655,202.484,17.806,7.518,47.671,18.914,80.613,33.945v325.26c-145.48,82.715-313.248,159.467-537.488,83.327-245.682-83.421-220.126-75.16-405.522,4.646a369.3,369.3,0,0,1-145.337,30C-5069.394-804.313-5143.92-835.1-5175.4-882.323Z" transform="translate(5175.397 1592.772)" fill="#fff" stroke="rgba(0,0,0,0)" stroke-miterlimit="10" stroke-width="1" opacity="0.2" style="mix-blend-mode: soft-light;isolation: isolate"/>
    <g id="Group_2372" data-name="Group 2372" transform="translate(78 178.139)" opacity="0.55">
      <g id="Group_2371" data-name="Group 2371" transform="translate(0)">
        <g id="Group_2366" data-name="Group 2366" transform="translate(0 0.948)">
          <path id="Path_9407" data-name="Path 9407" d="M21.819,133.038a3.231,3.231,0,1,1-3.184,3.277A3.231,3.231,0,0,1,21.819,133.038Z" transform="translate(-17.656 -65.2)" fill="#61bfe7"/>
          <path id="Path_9408" data-name="Path 9408" d="M21.55,114.361a3.231,3.231,0,1,1-3.185,3.277A3.231,3.231,0,0,1,21.55,114.361Z" transform="translate(-17.631 -63.482)" fill="#61bfe7"/>
          <path id="Path_9409" data-name="Path 9409" d="M21.28,95.685A3.231,3.231,0,1,1,18.1,98.962,3.231,3.231,0,0,1,21.28,95.685Z" transform="translate(-17.606 -61.766)" fill="#61bfe7"/>
          <path id="Path_9410" data-name="Path 9410" d="M21.011,77.008a3.231,3.231,0,1,1-3.184,3.277A3.232,3.232,0,0,1,21.011,77.008Z" transform="translate(-17.581 -60.049)" fill="#61bfe7"/>
          <path id="Path_9411" data-name="Path 9411" d="M20.741,58.332a3.231,3.231,0,1,1-3.184,3.276A3.23,3.23,0,0,1,20.741,58.332Z" transform="translate(-17.557 -58.332)" fill="#61bfe7"/>
        </g>
        <g id="Group_2367" data-name="Group 2367" transform="translate(16.421 0.711)">
          <path id="Path_9412" data-name="Path 9412" d="M39.9,132.777a3.231,3.231,0,1,1-3.185,3.277A3.231,3.231,0,0,1,39.9,132.777Z" transform="translate(-35.74 -64.939)" fill="#61bfe7"/>
          <path id="Path_9413" data-name="Path 9413" d="M39.633,114.1a3.231,3.231,0,1,1-3.184,3.277A3.231,3.231,0,0,1,39.633,114.1Z" transform="translate(-35.715 -63.221)" fill="#61bfe7"/>
          <path id="Path_9414" data-name="Path 9414" d="M39.364,95.424A3.231,3.231,0,1,1,36.18,98.7,3.23,3.23,0,0,1,39.364,95.424Z" transform="translate(-35.69 -61.505)" fill="#61bfe7"/>
          <path id="Path_9415" data-name="Path 9415" d="M39.095,76.747a3.231,3.231,0,1,1-3.185,3.277A3.231,3.231,0,0,1,39.095,76.747Z" transform="translate(-35.665 -59.788)" fill="#61bfe7"/>
          <path id="Path_9416" data-name="Path 9416" d="M38.825,58.071a3.231,3.231,0,1,1-3.184,3.277A3.23,3.23,0,0,1,38.825,58.071Z" transform="translate(-35.641 -58.071)" fill="#61bfe7"/>
        </g>
        <g id="Group_2368" data-name="Group 2368" transform="translate(32.843 0.474)">
          <path id="Path_9417" data-name="Path 9417" d="M57.986,132.516a3.231,3.231,0,1,1-3.184,3.277A3.231,3.231,0,0,1,57.986,132.516Z" transform="translate(-53.824 -64.678)" fill="#61bfe7"/>
          <path id="Path_9418" data-name="Path 9418" d="M57.717,113.84a3.231,3.231,0,1,1-3.184,3.277A3.23,3.23,0,0,1,57.717,113.84Z" transform="translate(-53.799 -62.961)" fill="#61bfe7"/>
          <path id="Path_9419" data-name="Path 9419" d="M57.448,95.163a3.231,3.231,0,1,1-3.185,3.277A3.23,3.23,0,0,1,57.448,95.163Z" transform="translate(-53.774 -61.244)" fill="#61bfe7"/>
          <path id="Path_9420" data-name="Path 9420" d="M57.178,76.486a3.231,3.231,0,1,1-3.184,3.277A3.232,3.232,0,0,1,57.178,76.486Z" transform="translate(-53.749 -59.527)" fill="#61bfe7"/>
          <path id="Path_9421" data-name="Path 9421" d="M56.909,57.81a3.231,3.231,0,1,1-3.184,3.276A3.232,3.232,0,0,1,56.909,57.81Z" transform="translate(-53.725 -57.81)" fill="#61bfe7"/>
        </g>
        <g id="Group_2369" data-name="Group 2369" transform="translate(49.264 0.237)">
          <path id="Path_9422" data-name="Path 9422" d="M76.07,132.255a3.231,3.231,0,1,1-3.184,3.277A3.232,3.232,0,0,1,76.07,132.255Z" transform="translate(-71.907 -64.417)" fill="#61bfe7"/>
          <path id="Path_9423" data-name="Path 9423" d="M75.8,113.579a3.231,3.231,0,1,1-3.184,3.277A3.23,3.23,0,0,1,75.8,113.579Z" transform="translate(-71.882 -62.7)" fill="#61bfe7"/>
          <path id="Path_9424" data-name="Path 9424" d="M75.531,94.9a3.231,3.231,0,1,1-3.184,3.277A3.231,3.231,0,0,1,75.531,94.9Z" transform="translate(-71.857 -60.983)" fill="#61bfe7"/>
          <path id="Path_9425" data-name="Path 9425" d="M75.262,76.226A3.231,3.231,0,1,1,72.078,79.5,3.23,3.23,0,0,1,75.262,76.226Z" transform="translate(-71.832 -59.266)" fill="#61bfe7"/>
          <path id="Path_9426" data-name="Path 9426" d="M74.992,57.549a3.231,3.231,0,1,1-3.184,3.277A3.23,3.23,0,0,1,74.992,57.549Z" transform="translate(-71.808 -57.549)" fill="#61bfe7"/>
        </g>
        <g id="Group_2370" data-name="Group 2370" transform="translate(65.685)">
          <path id="Path_9427" data-name="Path 9427" d="M94.154,131.995a3.23,3.23,0,1,1-3.184,3.276A3.23,3.23,0,0,1,94.154,131.995Z" transform="translate(-89.991 -64.156)" fill="#61bfe7"/>
          <path id="Path_9428" data-name="Path 9428" d="M93.884,113.318A3.231,3.231,0,1,1,90.7,116.6,3.23,3.23,0,0,1,93.884,113.318Z" transform="translate(-89.966 -62.439)" fill="#61bfe7"/>
          <path id="Path_9429" data-name="Path 9429" d="M93.615,94.641a3.231,3.231,0,1,1-3.184,3.277A3.232,3.232,0,0,1,93.615,94.641Z" transform="translate(-89.941 -60.722)" fill="#61bfe7"/>
          <path id="Path_9430" data-name="Path 9430" d="M93.345,75.965a3.23,3.23,0,1,1-3.184,3.276A3.23,3.23,0,0,1,93.345,75.965Z" transform="translate(-89.916 -59.005)" fill="#61bfe7"/>
          <path id="Path_9431" data-name="Path 9431" d="M93.076,57.288a3.231,3.231,0,1,1-3.184,3.277A3.231,3.231,0,0,1,93.076,57.288Z" transform="translate(-89.892 -57.288)" fill="#61bfe7"/>
        </g>
      </g>
    </g>
  </g>
</svg>
